<?xml version="1.0" encoding="UTF-8" standalone="no"?>
<!-- Created with Inkscape (http://www.inkscape.org/) -->

<svg
   xmlns:dc="http://purl.org/dc/elements/1.1/"
   xmlns:cc="http://creativecommons.org/ns#"
   xmlns:rdf="http://www.w3.org/1999/02/22-rdf-syntax-ns#"
   xmlns:svg="http://www.w3.org/2000/svg"
   xmlns="http://www.w3.org/2000/svg"
   xmlns:sodipodi="http://sodipodi.sourceforge.net/DTD/sodipodi-0.dtd"
   xmlns:inkscape="http://www.inkscape.org/namespaces/inkscape"
   version="1.1"
   id="svg2"
   xml:space="preserve"
   width="845.75598"
   height="265.42786"
   viewBox="0 0 845.75598 265.42786"
   sodipodi:docname="nafezly Logo.svg"
   inkscape:version="0.92.3 (2405546, 2018-03-11)"><metadata
     id="metadata8"><rdf:RDF><cc:Work
         rdf:about=""><dc:format>image/svg+xml</dc:format><dc:type
           rdf:resource="http://purl.org/dc/dcmitype/StillImage" /><dc:title></dc:title></cc:Work></rdf:RDF></metadata><defs
     id="defs6"><clipPath
       clipPathUnits="userSpaceOnUse"
       id="clipPath18"><path
         d="M 0,512 H 1080 V 0 H 0 Z"
         id="path16"
         inkscape:connector-curvature="0" /></clipPath></defs><sodipodi:namedview
     pagecolor="#ffffff"
     bordercolor="#666666"
     borderopacity="1"
     objecttolerance="10"
     gridtolerance="10"
     guidetolerance="10"
     inkscape:pageopacity="0"
     inkscape:pageshadow="2"
     inkscape:window-width="1900"
     inkscape:window-height="1055"
     id="namedview4"
     showgrid="false"
     inkscape:zoom="0.58729147"
     inkscape:cx="66.089708"
     inkscape:cy="-83.064736"
     inkscape:window-x="20"
     inkscape:window-y="0"
     inkscape:window-maximized="1"
     inkscape:current-layer="g10" /><g
     id="g10"
     inkscape:groupmode="layer"
     inkscape:label="nafezly Logo"
     transform="matrix(1.3333333,0,0,-1.3333333,-305.36479,491.48105)"><g
       id="g12"><g
         id="g14"
         clip-path="url(#clipPath18)"><g
           id="g20"
           transform="translate(480.9209,173.7256)"><path
             d="m 0,0 c -22.834,0 -45.668,8.698 -63.052,26.101 l 24.88,24.917 c 21.049,-21.067 55.296,-21.067 76.345,0 21.047,21.07 21.047,55.36 -0.002,76.434 l 24.884,24.91 C 97.822,117.553 97.822,60.913 63.055,26.104 45.669,8.701 22.835,0 0,0"
             style="fill:#f9f9f9;fill-opacity:1;fill-rule:nonzero;stroke:none"
             id="path22"
             inkscape:connector-curvature="0" /></g><g
           id="g24"
           transform="translate(283.3213,224.729)"><path
             d="M 0,0 C 5.919,-5.919 12.88,-10.177 20.294,-12.774 12.623,-10.117 5.662,-5.738 -0.045,-0.045 Z"
             style="fill:#f9f9f9;fill-opacity:1;fill-rule:nonzero;stroke:none"
             id="path26"
             inkscape:connector-curvature="0" /></g><g
           id="g28"
           transform="translate(303.6152,211.9546)"><path
             d="M 0,0 C 0.831,-0.287 1.661,-0.543 2.492,-0.8 1.646,-0.574 0.815,-0.317 0,0"
             style="fill:#f9f9f9;fill-opacity:1;fill-rule:nonzero;stroke:none"
             id="path30"
             inkscape:connector-curvature="0" /></g><g
           id="g32"
           transform="translate(306.1074,211.1543)"><path
             d="M 0,0 C 1.676,-0.498 3.352,-0.906 5.058,-1.238 3.337,-0.921 1.66,-0.513 0,0"
             style="fill:#f9f9f9;fill-opacity:1;fill-rule:nonzero;stroke:none"
             id="path34"
             inkscape:connector-curvature="0" /></g><g
           id="g36"
           transform="translate(312.4492,209.6899)"><path
             d="M 0,0 C 1.615,-0.272 3.246,-0.468 4.877,-0.604 3.231,-0.483 1.601,-0.287 0,0"
             style="fill:#f9f9f9;fill-opacity:1;fill-rule:nonzero;stroke:none"
             id="path38"
             inkscape:connector-curvature="0" /></g><g
           id="g40"
           transform="translate(377.1514,318.4844)"><path
             d="M 0,0 C -0.8,-0.8 -1.601,-1.601 -2.461,-2.25 L 2.235,2.461 C 1.586,1.585 0.801,0.8 0,0"
             style="fill:#f9f9f9;fill-opacity:1;fill-rule:nonzero;stroke:none"
             id="path42"
             inkscape:connector-curvature="0" /></g><g
           id="g44"
           transform="translate(406.9434,238.0171)"><path
             d="m 0,0 c 1.782,6.01 2.93,12.231 3.397,18.618 -1.433,-20.732 -10.055,-41.026 -25.82,-56.79 -16.73,-16.822 -38.596,-25.504 -60.64,-26.078 2.762,0.076 5.526,0.302 8.319,0.649 C -38.398,-59.131 -9.739,-33.144 0,0"
             style="fill:#f9f9f9;fill-opacity:1;fill-rule:nonzero;stroke:none"
             id="path46"
             inkscape:connector-curvature="0" /></g><g
           id="g48"
           transform="translate(425.8643,336.6494)"><path
             d="m 0,0 c -3.413,-14.783 -10.601,-28.856 -21.593,-40.664 2.823,-7.127 4.696,-14.556 5.617,-22.091 0.03,-0.151 0.045,-0.302 0.06,-0.468 0.167,-1.389 0.303,-2.794 0.393,-4.198 0.045,-0.664 0.09,-1.329 0.121,-1.993 0.015,-0.091 0.015,-0.181 0,-0.257 0.046,-0.604 0.06,-1.193 0.075,-1.782 0.03,-0.77 0.03,-1.525 0.03,-2.28 0,-0.981 -0.015,-1.948 -0.059,-2.914 0,-0.121 0,-0.227 -0.016,-0.332 -0.03,-1.027 -0.091,-2.039 -0.151,-3.035 -0.468,-6.387 -1.616,-12.609 -3.398,-18.618 -9.739,-33.144 -38.398,-59.131 -74.744,-63.601 -2.793,-0.347 -5.557,-0.574 -8.319,-0.649 -0.816,-0.031 -1.617,-0.046 -2.432,-0.046 h -0.302 c -14.134,0.046 -28.297,3.443 -41.147,10.193 -0.65,0.347 -1.298,0.694 -1.933,1.042 -4.077,2.25 -7.987,4.847 -11.657,7.716 -17.953,14.028 -30.622,34.941 -33.582,59.357 l 34.941,4.304 c 1.526,-12.473 7.218,-23.435 15.508,-31.649 5.707,-5.693 12.668,-10.072 20.339,-12.73 0.815,-0.317 1.646,-0.574 2.492,-0.8 1.66,-0.513 3.337,-0.921 5.058,-1.238 0.423,-0.106 0.845,-0.182 1.284,-0.226 1.601,-0.288 3.231,-0.484 4.877,-0.604 0.574,-0.046 1.163,-0.076 1.752,-0.091 0.694,-0.031 1.374,-0.061 2.054,-0.061 h 0.346 c 13.817,0 27.633,5.27 38.157,15.795 12.232,12.231 17.366,28.901 15.357,44.877 -0.211,1.691 -0.498,3.367 -0.876,5.043 -2.099,9.694 -6.87,18.95 -14.481,26.545 l 10.405,10.389 c 0.06,0.076 0.136,0.151 0.211,0.227 l 4.439,4.424 c 0.861,0.649 1.661,1.45 2.461,2.25 0.801,0.8 1.586,1.585 2.235,2.461 6.085,6.886 10.118,14.934 12.081,23.36 1.841,7.957 8.636,13.74 16.791,13.74 h 0.89 C -5.512,21.396 2.506,10.917 0,0"
             style="fill:#f9f9f9;fill-opacity:1;fill-rule:nonzero;stroke:none"
             id="path50"
             inkscape:connector-curvature="0" /></g><g
           id="g52"
           transform="translate(279.999,183.9146)"><path
             d="M 0,0 C 12.851,-6.75 27.014,-10.147 41.147,-10.193 26.455,-10.193 12.412,-6.539 0,0"
             style="fill:#f9f9f9;fill-opacity:1;fill-rule:nonzero;stroke:none"
             id="path54"
             inkscape:connector-curvature="0" /></g><g
           id="g56"
           transform="translate(374.9922,269.606)"><path
             d="m 0,0 c 2.009,-15.976 -3.125,-32.646 -15.356,-44.877 -10.525,-10.524 -24.341,-15.794 -38.158,-15.794 2.115,0.015 4.274,0.136 6.433,0.407 18.98,2.341 34.473,14.285 42.129,30.427 4.303,8.939 6.251,19.176 4.937,29.837 z"
             style="fill:#f9f9f9;fill-opacity:1;fill-rule:nonzero;stroke:none"
             id="path58"
             inkscape:connector-curvature="0" /></g><g
           id="g60"
           transform="translate(409.9033,273.8945)"><path
             d="M 0,0 C 0.015,-0.151 0.045,-0.317 0.045,-0.468 0.03,-0.302 0.015,-0.151 -0.015,0 Z"
             style="fill:#f9f9f9;fill-opacity:1;fill-rule:nonzero;stroke:none"
             id="path62"
             inkscape:connector-curvature="0" /></g><g
           id="g64"
           transform="translate(409.9482,273.4263)"><path
             d="M 0,0 C 0.182,-1.404 0.303,-2.809 0.393,-4.198 0.303,-2.793 0.167,-1.389 0,0"
             style="fill:#f9f9f9;fill-opacity:1;fill-rule:nonzero;stroke:none"
             id="path66"
             inkscape:connector-curvature="0" /></g><g
           id="g68"
           transform="translate(815.7705,337.9858)"><path
             d="m 0,0 c 0,-11.091 -8.98,-20.082 -20.058,-20.082 -11.078,0 -20.057,8.991 -20.057,20.082 0,11.091 8.979,20.082 20.057,20.082 C -8.98,20.082 0,11.091 0,0"
             style="fill:#f9f9f9;fill-opacity:1;fill-rule:nonzero;stroke:none"
             id="path70"
             inkscape:connector-curvature="0" /></g><g
           id="g72"
           transform="translate(681.71,348.5288)"><path
             d="m 0,0 c 0,-11.091 -8.98,-20.082 -20.058,-20.082 -11.078,0 -20.057,8.991 -20.057,20.082 0,11.091 8.979,20.082 20.057,20.082 C -8.98,20.082 0,11.091 0,0"
             style="fill:#f9f9f9;fill-opacity:1;fill-rule:nonzero;stroke:none"
             id="path74"
             inkscape:connector-curvature="0" /></g><g
           id="g76"
           transform="translate(621.0146,220.6069)"><path
             d="m 0,0 c -10.495,10.555 -15.779,24.371 -15.779,38.188 0,13.831 5.284,27.647 15.779,38.202 21.049,21.125 55.265,21.125 76.314,0 C 97.363,55.341 97.363,21.049 76.314,0 55.265,-21.049 21.049,-21.049 0,0 M 216.244,105.488 191.36,80.573 c 21.049,-21.079 21.049,-55.371 0,-76.436 -19.765,-19.781 -51.173,-20.989 -72.358,-3.609 15.326,33.069 9.392,73.612 -17.803,100.822 -9.045,9.106 -19.676,15.84 -30.97,20.113 C 68.568,106.56 55.99,95.054 40.648,95.054 c -15.915,0 -28.795,12.366 -29.731,27.995 -13.092,-4.123 -25.459,-11.355 -35.802,-21.699 -34.805,-34.805 -34.805,-91.444 0,-126.31 17.35,-17.365 40.211,-26.107 63.073,-26.107 21.471,0 43.003,7.761 59.946,23.192 16.081,-12.683 35.575,-19.01 55.053,-19.01 22.832,0 45.677,8.697 63.057,26.108 34.776,34.805 34.776,91.444 0,126.265"
             style="fill:#f9f9f9;fill-opacity:1;fill-rule:nonzero;stroke:none"
             id="path78"
             inkscape:connector-curvature="0" /></g><g
           id="g80"
           transform="translate(523.9463,337.9858)"><path
             d="m 0,0 c 0,-11.091 -8.979,-20.082 -20.058,-20.082 -11.077,0 -20.057,8.991 -20.057,20.082 0,11.091 8.98,20.082 20.057,20.082 C -8.979,20.082 0,11.091 0,0"
             style="fill:#f9f9f9;fill-opacity:1;fill-rule:nonzero;stroke:none"
             id="path82"
             inkscape:connector-curvature="0" /></g><g
           id="g84"
           transform="translate(269.1396,287.7549)"><path
             d="m 0,0 c 0,-11.091 -8.98,-20.082 -20.059,-20.082 -11.077,0 -20.057,8.991 -20.057,20.082 0,11.091 8.98,20.082 20.057,20.082 C -8.98,20.082 0,11.091 0,0"
             style="fill:#f9f9f9;fill-opacity:1;fill-rule:nonzero;stroke:none"
             id="path86"
             inkscape:connector-curvature="0" /></g><g
           id="g88"
           transform="translate(269.1396,337.0503)"><path
             d="m 0,0 c 0,-11.091 -8.98,-20.082 -20.059,-20.082 -11.077,0 -20.057,8.991 -20.057,20.082 0,11.091 8.98,20.082 20.057,20.082 C -8.98,20.082 0,11.091 0,0"
             style="fill:#f9f9f9;fill-opacity:1;fill-rule:nonzero;stroke:none"
             id="path90"
             inkscape:connector-curvature="0" /></g></g></g></g></svg>