<?xml version="1.0" encoding="UTF-8" standalone="no"?>
<!-- Created with Inkscape (http://www.inkscape.org/) -->

<svg
   xmlns:dc="http://purl.org/dc/elements/1.1/"
   xmlns:cc="http://creativecommons.org/ns#"
   xmlns:rdf="http://www.w3.org/1999/02/22-rdf-syntax-ns#"
   xmlns:svg="http://www.w3.org/2000/svg"
   xmlns="http://www.w3.org/2000/svg"
   xmlns:sodipodi="http://sodipodi.sourceforge.net/DTD/sodipodi-0.dtd"
   xmlns:inkscape="http://www.inkscape.org/namespaces/inkscape"
   version="1.1"
   id="svg2"
   xml:space="preserve"
   width="845.755"
   height="265.42786"
   viewBox="0 0 845.755 265.42786"
   sodipodi:docname="nafezly Logo wide.svg"
   inkscape:version="0.92.3 (2405546, 2018-03-11)"><metadata
     id="metadata8"><rdf:RDF><cc:Work
         rdf:about=""><dc:format>image/svg+xml</dc:format><dc:type
           rdf:resource="http://purl.org/dc/dcmitype/StillImage" /><dc:title></dc:title></cc:Work></rdf:RDF></metadata><defs
     id="defs6"><clipPath
       clipPathUnits="userSpaceOnUse"
       id="clipPath18"><path
         d="M 0,512 H 1080 V 0 H 0 Z"
         id="path16"
         inkscape:connector-curvature="0" /></clipPath></defs><sodipodi:namedview
     pagecolor="#ffffff"
     bordercolor="#666666"
     borderopacity="1"
     objecttolerance="10"
     gridtolerance="10"
     guidetolerance="10"
     inkscape:pageopacity="0"
     inkscape:pageshadow="2"
     inkscape:window-width="1900"
     inkscape:window-height="1055"
     id="namedview4"
     showgrid="false"
     inkscape:zoom="0.20763889"
     inkscape:cx="398.29401"
     inkscape:cy="126.76253"
     inkscape:window-x="20"
     inkscape:window-y="0"
     inkscape:window-maximized="1"
     inkscape:current-layer="g10" /><g
     id="g10"
     inkscape:groupmode="layer"
     inkscape:label="nafezly Logo"
     transform="matrix(1.3333333,0,0,-1.3333333,-321.70599,479.99865)"><g
       id="g12"><g
         id="g14"
         clip-path="url(#clipPath18)"><g
           id="g20"
           transform="translate(493.1758,165.1143)"><path
             d="m 0,0 c -22.834,0 -45.668,8.697 -63.052,26.101 l 24.881,24.917 c 21.049,-21.068 55.295,-21.068 76.344,0 21.047,21.07 21.047,55.359 -0.002,76.433 l 24.885,24.91 C 97.822,117.553 97.822,60.913 63.056,26.104 45.67,8.701 22.836,0 0,0"
             style="fill:#1976d3;fill-opacity:1;fill-rule:nonzero;stroke:none"
             id="path22"
             inkscape:connector-curvature="0" /></g><g
           id="g24"
           transform="translate(295.5762,216.1172)"><path
             d="m 0,0 c 5.92,-5.919 12.881,-10.177 20.295,-12.774 -7.671,2.658 -14.632,7.037 -20.34,12.729 z"
             style="fill:#1976d3;fill-opacity:1;fill-rule:nonzero;stroke:none"
             id="path26"
             inkscape:connector-curvature="0" /></g><g
           id="g28"
           transform="translate(315.8711,203.3428)"><path
             d="M 0,0 C 0.83,-0.287 1.661,-0.543 2.491,-0.8 1.646,-0.573 0.815,-0.316 0,0"
             style="fill:#1976d3;fill-opacity:1;fill-rule:nonzero;stroke:none"
             id="path30"
             inkscape:connector-curvature="0" /></g><g
           id="g32"
           transform="translate(318.3623,202.543)"><path
             d="M 0,0 C 1.676,-0.498 3.353,-0.906 5.059,-1.238 3.337,-0.921 1.661,-0.514 0,0"
             style="fill:#1976d3;fill-opacity:1;fill-rule:nonzero;stroke:none"
             id="path34"
             inkscape:connector-curvature="0" /></g><g
           id="g36"
           transform="translate(324.7041,201.0781)"><path
             d="M 0,0 C 1.616,-0.271 3.246,-0.468 4.877,-0.604 3.231,-0.483 1.601,-0.287 0,0"
             style="fill:#1976d3;fill-opacity:1;fill-rule:nonzero;stroke:none"
             id="path38"
             inkscape:connector-curvature="0" /></g><g
           id="g40"
           transform="translate(389.4072,309.8721)"><path
             d="M 0,0 C -0.801,-0.8 -1.601,-1.601 -2.462,-2.249 L 2.234,2.462 C 1.585,1.586 0.8,0.801 0,0"
             style="fill:#1976d3;fill-opacity:1;fill-rule:nonzero;stroke:none"
             id="path42"
             inkscape:connector-curvature="0" /></g><g
           id="g44"
           transform="translate(419.1992,229.4053)"><path
             d="m 0,0 c 1.781,6.01 2.929,12.231 3.397,18.618 -1.434,-20.732 -10.056,-41.026 -25.821,-56.79 -16.73,-16.821 -38.595,-25.504 -60.64,-26.078 2.763,0.076 5.526,0.303 8.32,0.649 C -38.399,-59.131 -9.739,-33.145 0,0"
             style="fill:#1976d3;fill-opacity:1;fill-rule:nonzero;stroke:none"
             id="path46"
             inkscape:connector-curvature="0" /></g><g
           id="g48"
           transform="translate(438.1191,328.0371)"><path
             d="m 0,0 c -3.412,-14.782 -10.6,-28.855 -21.593,-40.663 2.823,-7.128 4.697,-14.557 5.617,-22.092 0.031,-0.15 0.045,-0.302 0.061,-0.468 0.166,-1.388 0.302,-2.793 0.393,-4.197 0.044,-0.665 0.09,-1.329 0.121,-1.993 0.014,-0.091 0.014,-0.182 0,-0.257 0.045,-0.604 0.059,-1.193 0.075,-1.782 0.03,-0.77 0.03,-1.526 0.03,-2.28 0,-0.982 -0.016,-1.948 -0.06,-2.914 0,-0.122 0,-0.227 -0.015,-0.333 -0.03,-1.026 -0.091,-2.038 -0.151,-3.035 -0.469,-6.386 -1.617,-12.608 -3.398,-18.618 -9.739,-33.144 -38.399,-59.131 -74.744,-63.6 -2.794,-0.347 -5.557,-0.574 -8.32,-0.65 -0.816,-0.03 -1.616,-0.045 -2.431,-0.045 h -0.303 c -14.133,0.045 -28.297,3.443 -41.146,10.193 -0.65,0.347 -1.299,0.694 -1.933,1.042 -4.077,2.25 -7.988,4.846 -11.657,7.715 -17.954,14.028 -30.623,34.942 -33.582,59.358 l 34.94,4.304 c 1.526,-12.473 7.218,-23.436 15.508,-31.65 5.708,-5.692 12.669,-10.071 20.34,-12.729 0.815,-0.317 1.645,-0.574 2.491,-0.8 1.661,-0.514 3.337,-0.921 5.059,-1.238 0.423,-0.106 0.845,-0.182 1.283,-0.227 1.601,-0.287 3.231,-0.483 4.877,-0.604 0.574,-0.045 1.163,-0.076 1.752,-0.09 0.694,-0.031 1.374,-0.061 2.054,-0.061 h 0.347 c 13.817,0 27.632,5.27 38.157,15.794 12.231,12.232 17.365,28.901 15.357,44.877 -0.212,1.691 -0.499,3.367 -0.876,5.044 -2.099,9.693 -6.87,18.95 -14.481,26.545 l 10.404,10.389 c 0.06,0.075 0.136,0.151 0.212,0.226 l 4.438,4.425 c 0.861,0.648 1.661,1.449 2.462,2.249 0.8,0.801 1.585,1.586 2.234,2.462 6.086,6.886 10.118,14.933 12.081,23.359 1.841,7.957 8.636,13.74 16.791,13.74 h 0.89 C -5.512,21.396 2.507,10.918 0,0"
             style="fill:#1976d3;fill-opacity:1;fill-rule:nonzero;stroke:none"
             id="path50"
             inkscape:connector-curvature="0" /></g><g
           id="g52"
           transform="translate(292.2549,175.3027)"><path
             d="M 0,0 C 12.85,-6.75 27.014,-10.147 41.146,-10.192 26.455,-10.192 12.412,-6.538 0,0"
             style="fill:#1976d3;fill-opacity:1;fill-rule:nonzero;stroke:none"
             id="path54"
             inkscape:connector-curvature="0" /></g><g
           id="g56"
           transform="translate(387.248,260.9941)"><path
             d="m 0,0 c 2.008,-15.976 -3.126,-32.646 -15.356,-44.877 -10.526,-10.524 -24.341,-15.794 -38.158,-15.794 2.114,0.015 4.273,0.136 6.432,0.407 18.981,2.341 34.474,14.285 42.129,30.427 4.304,8.939 6.251,19.177 4.937,29.837 z"
             style="fill:#1976d3;fill-opacity:1;fill-rule:nonzero;stroke:none"
             id="path58"
             inkscape:connector-curvature="0" /></g><g
           id="g60"
           transform="translate(422.1582,265.2822)"><path
             d="M 0,0 C 0.016,-0.15 0.046,-0.316 0.046,-0.468 0.03,-0.302 0.016,-0.15 -0.015,0 Z"
             style="fill:#1976d3;fill-opacity:1;fill-rule:nonzero;stroke:none"
             id="path62"
             inkscape:connector-curvature="0" /></g><g
           id="g64"
           transform="translate(422.2041,264.8145)"><path
             d="M 0,0 C 0.181,-1.404 0.302,-2.809 0.393,-4.197 0.302,-2.793 0.166,-1.389 0,0"
             style="fill:#1976d3;fill-opacity:1;fill-rule:nonzero;stroke:none"
             id="path66"
             inkscape:connector-curvature="0" /></g><g
           id="g68"
           transform="translate(828.0254,329.374)"><path
             d="m 0,0 c 0,-11.091 -8.979,-20.082 -20.058,-20.082 -11.077,0 -20.057,8.991 -20.057,20.082 0,11.091 8.98,20.082 20.057,20.082 C -8.979,20.082 0,11.091 0,0"
             style="fill:#1976d3;fill-opacity:1;fill-rule:nonzero;stroke:none"
             id="path70"
             inkscape:connector-curvature="0" /></g><g
           id="g72"
           transform="translate(693.9648,339.917)"><path
             d="m 0,0 c 0,-11.091 -8.979,-20.082 -20.058,-20.082 -11.077,0 -20.057,8.991 -20.057,20.082 0,11.091 8.98,20.082 20.057,20.082 C -8.979,20.082 0,11.091 0,0"
             style="fill:#1976d3;fill-opacity:1;fill-rule:nonzero;stroke:none"
             id="path74"
             inkscape:connector-curvature="0" /></g><g
           id="g76"
           transform="translate(633.2695,211.9951)"><path
             d="m 0,0 c -10.494,10.555 -15.779,24.371 -15.779,38.188 0,13.832 5.285,27.648 15.779,38.203 21.049,21.124 55.266,21.124 76.314,0 C 97.364,55.341 97.364,21.05 76.314,0 55.266,-21.049 21.049,-21.049 0,0 M 216.245,105.487 191.36,80.573 c 21.049,-21.08 21.049,-55.371 0,-76.435 -19.765,-19.782 -51.173,-20.99 -72.358,-3.61 15.326,33.07 9.393,73.613 -17.803,100.823 -9.045,9.104 -19.675,15.839 -30.97,20.112 C 68.568,106.56 55.99,95.054 40.648,95.054 c -15.915,0 -28.794,12.367 -29.731,27.995 -13.091,-4.122 -25.458,-11.356 -35.802,-21.698 -34.804,-34.806 -34.804,-91.446 0,-126.311 17.35,-17.365 40.211,-26.107 63.073,-26.107 21.471,0 43.004,7.76 59.946,23.193 16.082,-12.684 35.575,-19.011 55.054,-19.011 22.831,0 45.677,8.697 63.057,26.108 34.775,34.805 34.775,91.444 0,126.264"
             style="fill:#1976d3;fill-opacity:1;fill-rule:nonzero;stroke:none"
             id="path78"
             inkscape:connector-curvature="0" /></g><g
           id="g80"
           transform="translate(536.2021,329.374)"><path
             d="m 0,0 c 0,-11.091 -8.98,-20.082 -20.058,-20.082 -11.078,0 -20.058,8.991 -20.058,20.082 0,11.091 8.98,20.082 20.058,20.082 C -8.98,20.082 0,11.091 0,0"
             style="fill:#1976d3;fill-opacity:1;fill-rule:nonzero;stroke:none"
             id="path82"
             inkscape:connector-curvature="0" /></g><g
           id="g84"
           transform="translate(281.3945,279.1436)"><path
             d="m 0,0 c 0,-11.091 -8.98,-20.082 -20.058,-20.082 -11.078,0 -20.057,8.991 -20.057,20.082 0,11.091 8.979,20.082 20.057,20.082 C -8.98,20.082 0,11.091 0,0"
             style="fill:#1976d3;fill-opacity:1;fill-rule:nonzero;stroke:none"
             id="path86"
             inkscape:connector-curvature="0" /></g><g
           id="g88"
           transform="translate(281.3945,328.4385)"><path
             d="m 0,0 c 0,-11.091 -8.98,-20.082 -20.058,-20.082 -11.078,0 -20.057,8.991 -20.057,20.082 0,11.091 8.979,20.082 20.057,20.082 C -8.98,20.082 0,11.091 0,0"
             style="fill:#1976d3;fill-opacity:1;fill-rule:nonzero;stroke:none"
             id="path90"
             inkscape:connector-curvature="0" /></g></g></g></g></svg>